# xmcd CD database file
#
# Track frame offsets:
#	150
#	20856
#	39450
#	44456
#	67023
#	69533
#	92570
#	115184
#	137906
#	152118
#	165731
#	187476
#	197685
#
# Disc length: 2876 seconds
#
# Revision: 0
# Processed by: cddbd v1.5.2PL0 Copyright (c) Steve Scherf et al.
# Submitted via: CDex 1.70beta2
#
DISCID=c30b3a0d
DTITLE=The Skopje Connection - meets Ernst Reijseger
DYEAR=2011
DGENRE=Jazz
TTITLE0=Giovanni da Nembro
TTITLE1=Branko, Branko, Branko
TTITLE2=Gotcha
TTITLE3=Marsh na V'nka
TTITLE4=One Legged Tango
TTITLE5=Zlust
TTITLE6=Outskirts
TTITLE7=Love Song 2
TTITLE8=Tiny Waltz
TTITLE9=Kas Kas
TTITLE10=The Old Man and The Seal
TTITLE11=Midnight Rooster
TTITLE12=Gjotzville 2
EXTD=YEAR: 2011
EXTT0=
EXTT1=
EXTT2=
EXTT3=
EXTT4=
EXTT5=
EXTT6=
EXTT7=
EXTT8=
EXTT9=
EXTT10=
EXTT11=
EXTT12=
PLAYORDER=
